<svg width="560" xmlns="http://www.w3.org/2000/svg" height="164" id="screenshot-ffce582a-c3ad-8097-8007-f92fc5352493" viewBox="0 0 560 164" xmlns:xlink="http://www.w3.org/1999/xlink" fill="none" version="1.1"><g id="shape-ffce582a-c3ad-8097-8007-f92fc5352493" rx="0" ry="0"><g id="shape-ffce582a-c3ad-8097-8007-f92fa314d801"><g class="fills" id="fills-ffce582a-c3ad-8097-8007-f92fa314d801"><path d="M20,0L540,0C551.080078125,0,560,8.9200439453125,560,20L560,144C560,155.0799560546875,551.080078125,164,540,164L20,164C8.9200439453125,164,0,155.0799560546875,0,144L0,20C0,8.9200439453125,8.9200439453125,0,20,0Z" style="display: inline; overflow: visible; marker: none; fill: rgb(0, 0, 0); fill-opacity: 1;"/></g><g id="strokes-868f8bc0-5cca-8071-8007-f93041a8918a-ffce582a-c3ad-8097-8007-f92fa314d801" class="strokes" style="display: inline; overflow: visible; marker: none;"><g class="stroke-shape"><path d="M20,0L540,0C551.080078125,0,560,8.9200439453125,560,20L560,144C560,155.0799560546875,551.080078125,164,540,164L20,164C8.9200439453125,164,0,155.0799560546875,0,144L0,20C0,8.9200439453125,8.9200439453125,0,20,0Z" style="fill: none; stroke-width: 4; stroke: rgb(166, 166, 166); stroke-opacity: 1;"/></g></g></g><g id="shape-ffce582a-c3ad-8097-8007-f92fa3153cce" rx="0" ry="0" style="fill: rgb(0, 0, 0);"><g id="shape-ffce582a-c3ad-8097-8007-f92fa3155ebb"><g class="fills" id="fills-ffce582a-c3ad-8097-8007-f92fa3155ebb"><path d="M197.2626953125,43.45587158203125L197.2626953125,36.774169921875L191.7640380859375,36.774169921875L191.7640380859375,34.0081787109375L200.59521484375,34.0081787109375L200.59521484375,44.68890380859375C199.2955322265625,45.61090087890625,197.862548828125,46.31072998046875,196.2962646484375,46.78839111328125C194.72998046875,47.25494384765625,193.05816650390625,47.48822021484375,191.28082275390625,47.48822021484375C187.39288330078125,47.48822021484375,184.34918212890625,46.35516357421875,182.14971923828125,44.08905029296875C179.96136474609375,41.81182861328125,178.8671875,38.64593505859375,178.8671875,34.59136962890625C178.8671875,30.52569580078125,179.96136474609375,27.35980224609375,182.14971923828125,25.09368896484375C184.34918212890625,22.81646728515625,187.39288330078125,21.6778564453125,191.28082275390625,21.6778564453125C192.90264892578125,21.6778564453125,194.441162109375,21.8778076171875,195.8963623046875,22.2777099609375C197.3626708984375,22.6776123046875,198.71240234375,23.266357421875,199.9453125,24.0439453125L199.9453125,27.62640380859375C198.701171875,26.57110595703125,197.37939453125,25.77685546875,195.97967529296875,25.24365234375C194.58001708984375,24.71044921875,193.108154296875,24.44384765625,191.5640869140625,24.44384765625C188.5203857421875,24.44384765625,186.2320556640625,25.29364013671875,184.6990966796875,26.99322509765625C183.17724609375,28.69281005859375,182.41632080078125,31.22552490234375,182.41632080078125,34.59136962890625C182.41632080078125,37.94610595703125,183.17724609375,40.4732666015625,184.6990966796875,42.1728515625C186.2320556640625,43.8724365234375,188.5203857421875,44.72222900390625,191.5640869140625,44.72222900390625C192.752685546875,44.72222900390625,193.81353759765625,44.62225341796875,194.74664306640625,44.42230224609375C195.67974853515625,44.21124267578125,196.5184326171875,43.88909912109375,197.2626953125,43.45587158203125Z" style="word-spacing: 0px; overflow: visible; marker: none; font-family: &quot;DejaVu Sans&quot;; letter-spacing: 0px; stroke-width: 1px; display: inline; line-height: 100%; font-size: 34.125px; fill: rgb(255, 255, 255);"/></g></g><g id="shape-ffce582a-c3ad-8097-8007-f92fa315858a"><g class="fills" id="fills-ffce582a-c3ad-8097-8007-f92fa315858a"><path d="M206.74365234375,22.12774658203125L222.47314453125,22.12774658203125L222.47314453125,24.96038818359375L210.109619140625,24.96038818359375L210.109619140625,32.32525634765625L221.9566650390625,32.32525634765625L221.9566650390625,35.15789794921875L210.109619140625,35.15789794921875L210.109619140625,44.17236328125L222.773193359375,44.17236328125L222.773193359375,47.0050048828125L206.74365234375,47.0050048828125Z" style="word-spacing: 0px; overflow: visible; marker: none; font-family: &quot;DejaVu Sans&quot;; letter-spacing: 0px; stroke-width: 1px; display: inline; line-height: 100%; font-size: 34.125px; fill: rgb(255, 255, 255);"/></g></g><g id="shape-ffce582a-c3ad-8097-8007-f92fa315858b"><g class="fills" id="fills-ffce582a-c3ad-8097-8007-f92fa315858b"><path d="M224.85595703125,22.12774658203125L245.90087890625,22.12774658203125L245.90087890625,24.96038818359375L237.069580078125,24.96038818359375L237.069580078125,47.0050048828125L233.6871337890625,47.0050048828125L233.6871337890625,24.96038818359375L224.85595703125,24.96038818359375Z" style="word-spacing: 0px; overflow: visible; marker: none; font-family: &quot;DejaVu Sans&quot;; letter-spacing: 0px; stroke-width: 1px; display: inline; line-height: 100%; font-size: 34.125px; fill: rgb(255, 255, 255);"/></g></g><g id="shape-ffce582a-c3ad-8097-8007-f92fa315c220"><g class="fills" id="fills-ffce582a-c3ad-8097-8007-f92fa315c220"><path d="M259.997314453125,22.12774658203125L263.36328125,22.12774658203125L263.36328125,47.0050048828125L259.997314453125,47.0050048828125Z" style="word-spacing: 0px; overflow: visible; marker: none; font-family: &quot;DejaVu Sans&quot;; letter-spacing: 0px; stroke-width: 1px; display: inline; line-height: 100%; font-size: 34.125px; fill: rgb(255, 255, 255);"/></g></g><g id="shape-ffce582a-c3ad-8097-8007-f92fa315c221"><g class="fills" id="fills-ffce582a-c3ad-8097-8007-f92fa315c221"><path d="M266.6124267578125,22.12774658203125L287.6572265625,22.12774658203125L287.6572265625,24.96038818359375L278.826171875,24.96038818359375L278.826171875,47.0050048828125L275.443603515625,47.0050048828125L275.443603515625,24.96038818359375L266.6124267578125,24.96038818359375Z" style="word-spacing: 0px; overflow: visible; marker: none; font-family: &quot;DejaVu Sans&quot;; letter-spacing: 0px; stroke-width: 1px; display: inline; line-height: 100%; font-size: 34.125px; fill: rgb(255, 255, 255);"/></g></g><g id="shape-ffce582a-c3ad-8097-8007-f92fa31615ff"><g class="fills" id="fills-ffce582a-c3ad-8097-8007-f92fa31615ff"><path d="M311.851318359375,24.4105224609375C309.407470703125,24.4105224609375,307.463623046875,25.3214111328125,306.01953125,27.1431884765625C304.58642578125,28.9649658203125,303.8699951171875,31.44769287109375,303.8699951171875,34.59136962890625C303.8699951171875,37.72393798828125,304.58642578125,40.20111083984375,306.01953125,42.02288818359375C307.463623046875,43.84466552734375,309.407470703125,44.75555419921875,311.851318359375,44.75555419921875C314.295166015625,44.75555419921875,316.22802734375,43.84466552734375,317.64990234375,42.02288818359375C319.0830078125,40.20111083984375,319.7994384765625,37.72393798828125,319.7994384765625,34.59136962890625C319.7994384765625,31.44769287109375,319.0830078125,28.9649658203125,317.64990234375,27.1431884765625C316.22802734375,25.3214111328125,314.295166015625,24.4105224609375,311.851318359375,24.4105224609375ZM311.851318359375,21.6778564453125C315.33935546875,21.6778564453125,318.127685546875,22.84979248046875,320.216064453125,25.19366455078125C322.304443359375,27.52642822265625,323.3486328125,30.65899658203125,323.3486328125,34.59136962890625C323.3486328125,38.51263427734375,322.304443359375,41.64520263671875,320.216064453125,43.98907470703125C318.127685546875,46.32183837890625,315.33935546875,47.48822021484375,311.851318359375,47.48822021484375C308.352294921875,47.48822021484375,305.552978515625,46.32183837890625,303.453369140625,43.98907470703125C301.364990234375,41.65631103515625,300.32080078125,38.52374267578125,300.32080078125,34.59136962890625C300.32080078125,30.65899658203125,301.364990234375,27.52642822265625,303.453369140625,25.19366455078125C305.552978515625,22.84979248046875,308.352294921875,21.6778564453125,311.851318359375,21.6778564453125Z" style="word-spacing: 0px; overflow: visible; marker: none; font-family: &quot;DejaVu Sans&quot;; letter-spacing: 0px; stroke-width: 1px; display: inline; line-height: 100%; font-size: 34.125px; fill: rgb(255, 255, 255);"/></g></g><g id="shape-ffce582a-c3ad-8097-8007-f92fa3161600"><g class="fills" id="fills-ffce582a-c3ad-8097-8007-f92fa3161600"><path d="M328.614013671875,22.12774658203125L333.146240234375,22.12774658203125L344.1767578125,42.9393310546875L344.1767578125,22.12774658203125L347.442626953125,22.12774658203125L347.442626953125,47.0050048828125L342.910400390625,47.0050048828125L331.8798828125,26.19342041015625L331.8798828125,47.0050048828125L328.614013671875,47.0050048828125Z" style="word-spacing: 0px; overflow: visible; marker: none; font-family: &quot;DejaVu Sans&quot;; letter-spacing: 0px; stroke-width: 1px; display: inline; line-height: 100%; font-size: 34.125px; fill: rgb(255, 255, 255);"/></g></g></g><g id="shape-ffce582a-c3ad-8097-8007-f92fa3165ab5" rx="0" ry="0" style="fill: rgb(0, 0, 0);"><g id="shape-ffce582a-c3ad-8097-8007-f92fa3165ab6"><g class="fills" id="fills-ffce582a-c3ad-8097-8007-f92fa3165ab6"><path d="M178.8106689453125,125.88134765625L178.8106689453125,133.9990234375L206.7818603515625,133.9990234375L206.7818603515625,125.88134765625L199.5455322265625,124.48974609375L199.5455322265625,105.93505859375L223.2027587890625,105.93505859375L223.2027587890625,95.498046875L199.5455322265625,95.498046875L199.5455322265625,76.89697265625L221.5792236328125,76.89697265625L222.1822509765625,84.96826171875L232.5728759765625,84.96826171875L232.5728759765625,66.4599609375L178.8106689453125,66.4599609375L178.8106689453125,74.6240234375L186.0006103515625,76.015625L186.0006103515625,124.48974609375Z" style="word-spacing: 0px; overflow: visible; marker: none; font-family: &quot;Roboto Slab&quot;; letter-spacing: 0px; stroke-width: 1px; font-weight: 700; display: inline; line-height: 100%; font-size: 95px; fill: rgb(255, 255, 255);"/></g></g><g id="shape-ffce582a-c3ad-8097-8007-f92fa3168ed3"><g class="fills" id="fills-ffce582a-c3ad-8097-8007-f92fa3168ed3"><path d="M267.1309814453125,110.341796875L267.1309814453125,99.90478515625L240.9688720703125,99.90478515625L240.9688720703125,110.341796875Z" style="word-spacing: 0px; overflow: visible; marker: none; font-family: &quot;Roboto Slab&quot;; letter-spacing: 0px; stroke-width: 1px; font-weight: 700; display: inline; line-height: 100%; font-size: 95px; fill: rgb(255, 255, 255);"/></g></g><g id="shape-ffce582a-c3ad-8097-8007-f92fa3168ed4"><g class="fills" id="fills-ffce582a-c3ad-8097-8007-f92fa3168ed4"><path d="M305.6783447265625,66.4599609375L275.2950439453125,66.4599609375L275.2950439453125,74.6240234375L282.4849853515625,76.015625L282.4849853515625,124.48974609375L275.2950439453125,125.88134765625L275.2950439453125,133.9990234375L305.6783447265625,133.9990234375C322.1920166015625,133.9990234375,334.1134033203125,122.40234375,334.1134033203125,105.84228515625L334.1134033203125,94.6630859375C334.1134033203125,78.1494140625,322.1920166015625,66.4599609375,305.6783447265625,66.4599609375ZM296.0299072265625,76.89697265625L304.9825439453125,76.89697265625C314.6773681640625,76.89697265625,320.5220947265625,84.13330078125,320.5220947265625,94.5703125L320.5220947265625,105.84228515625C320.5220947265625,116.41845703125,314.6773681640625,123.6083984375,304.9825439453125,123.6083984375L296.0299072265625,123.6083984375Z" style="word-spacing: 0px; overflow: visible; marker: none; font-family: &quot;Roboto Slab&quot;; letter-spacing: 0px; stroke-width: 1px; font-weight: 700; display: inline; line-height: 100%; font-size: 95px; fill: rgb(255, 255, 255);"/></g></g><g id="shape-ffce582a-c3ad-8097-8007-f92fa316e356"><g class="fills" id="fills-ffce582a-c3ad-8097-8007-f92fa316e356"><path d="M342.0919189453125,125.88134765625L342.0919189453125,133.9990234375L368.6251220703125,133.9990234375L368.6251220703125,125.88134765625L362.1309814453125,124.48974609375L362.1309814453125,99.90478515625C363.6153564453125,97.0751953125,366.0274658203125,95.5908203125,370.0167236328125,95.7763671875L376.6964111328125,96.10107421875L378.1343994140625,83.623046875C376.8355712890625,83.1591796875,374.7017822265625,82.880859375,372.7999267578125,82.880859375C367.9293212890625,82.880859375,364.1719970703125,85.9423828125,361.8062744140625,91.1376953125L361.71337890625,90.0244140625L361.2032470703125,83.80859375L341.3961181640625,83.80859375L341.3961181640625,91.97265625L348.5860595703125,93.3642578125L348.5860595703125,124.48974609375Z" style="word-spacing: 0px; overflow: visible; marker: none; font-family: &quot;Roboto Slab&quot;; letter-spacing: 0px; stroke-width: 1px; font-weight: 700; display: inline; line-height: 100%; font-size: 95px; fill: rgb(255, 255, 255);"/></g></g><g id="shape-ffce582a-c3ad-8097-8007-f92fa316e357"><g class="fills" id="fills-ffce582a-c3ad-8097-8007-f92fa316e357"><path d="M381.2423095703125,108.43994140625L381.2423095703125,109.4140625C381.2423095703125,124.48974609375,390.1021728515625,134.97314453125,404.9923095703125,134.97314453125C419.6968994140625,134.97314453125,428.6031494140625,124.48974609375,428.6031494140625,109.4140625L428.6031494140625,108.43994140625C428.6031494140625,93.41064453125,419.7432861328125,82.880859375,404.8995361328125,82.880859375C390.1021728515625,82.880859375,381.2423095703125,93.45703125,381.2423095703125,108.43994140625ZM394.7872314453125,109.4140625L394.7872314453125,108.43994140625C394.7872314453125,99.53369140625,397.8487548828125,93.31787109375,404.8995361328125,93.31787109375C411.9503173828125,93.31787109375,415.1046142578125,99.53369140625,415.1046142578125,108.43994140625L415.1046142578125,109.4140625C415.1046142578125,118.505859375,411.9967041015625,124.58251953125,404.9923095703125,124.58251953125C397.8023681640625,124.58251953125,394.7872314453125,118.55224609375,394.7872314453125,109.4140625Z" style="word-spacing: 0px; overflow: visible; marker: none; font-family: &quot;Roboto Slab&quot;; letter-spacing: 0px; stroke-width: 1px; font-weight: 700; display: inline; line-height: 100%; font-size: 95px; fill: rgb(255, 255, 255);"/></g></g><g id="shape-ffce582a-c3ad-8097-8007-f92fa31702e4"><g class="fills" id="fills-ffce582a-c3ad-8097-8007-f92fa31702e4"><path d="M454.1622314453125,73.18603515625L454.1622314453125,61.6357421875L440.1534423828125,61.6357421875L440.1534423828125,73.18603515625ZM434.0767822265625,125.88134765625L434.0767822265625,133.9990234375L460.6563720703125,133.9990234375L460.6563720703125,125.88134765625L454.1622314453125,124.48974609375L454.1622314453125,83.80859375L433.3809814453125,83.80859375L433.3809814453125,91.97265625L440.6173095703125,93.3642578125L440.6173095703125,124.48974609375Z" style="word-spacing: 0px; overflow: visible; marker: none; font-family: &quot;Roboto Slab&quot;; letter-spacing: 0px; stroke-width: 1px; font-weight: 700; display: inline; line-height: 100%; font-size: 95px; fill: rgb(255, 255, 255);"/></g></g><g id="shape-ffce582a-c3ad-8097-8007-f92fa31702e5"><g class="fills" id="fills-ffce582a-c3ad-8097-8007-f92fa31702e5"><path d="M497.7657470703125,127.8759765625L498.7862548828125,133.9990234375L517.0162353515625,133.9990234375L517.0162353515625,125.88134765625L510.5220947265625,124.48974609375L510.5220947265625,61.6357421875L489.7408447265625,61.6357421875L489.7408447265625,69.7998046875L496.9771728515625,71.19140625L496.9771728515625,89.189453125C493.9620361328125,85.15380859375,489.9263916015625,82.880859375,484.9166259765625,82.880859375C472.4849853515625,82.880859375,465.2950439453125,93.50341796875,465.2950439453125,109.3212890625L465.2950439453125,110.29541015625C465.2950439453125,125.13916015625,472.4385986328125,134.97314453125,484.8238525390625,134.97314453125C490.3438720703125,134.97314453125,494.6114501953125,132.5146484375,497.7657470703125,127.8759765625ZM478.8399658203125,110.29541015625L478.8399658203125,109.3212890625C478.8399658203125,99.8583984375,481.7159423828125,93.41064453125,488.3492431640625,93.41064453125C492.2457275390625,93.41064453125,495.1217041015625,95.26611328125,496.9771728515625,98.466796875L496.9771728515625,119.75830078125C495.1217041015625,122.7734375,492.1993408203125,124.443359375,488.2564697265625,124.443359375C481.5767822265625,124.443359375,478.8399658203125,119.0625,478.8399658203125,110.29541015625Z" style="word-spacing: 0px; overflow: visible; marker: none; font-family: &quot;Roboto Slab&quot;; letter-spacing: 0px; stroke-width: 1px; font-weight: 700; display: inline; line-height: 100%; font-size: 95px; fill: rgb(255, 255, 255);"/></g></g></g><g id="shape-ffce582a-c3ad-8097-8007-f92fa31702e6"><g class="fills" id="fills-ffce582a-c3ad-8097-8007-f92fa31702e6"><path d="M144.3448486328125,23.79083251953125L133.1605224609375,38.26446533203125" style="fill-rule: evenodd; stroke-linejoin: miter; stroke-dasharray: none; stroke-miterlimit: 4; stroke-linecap: round; fill: rgb(138, 176, 0); fill-opacity: 1;"/></g><g id="strokes-868f8bc0-5cca-8071-8007-f93041aeed4b-ffce582a-c3ad-8097-8007-f92fa31702e6" class="strokes" style="fill-rule: evenodd; stroke-linejoin: miter; stroke-dasharray: none; stroke-miterlimit: 4; stroke-linecap: round;"><g class="stroke-shape"><path d="M144.3448486328125,23.79083251953125L133.1605224609375,38.26446533203125" style="fill: none; stroke-width: 2.5; stroke: rgb(118, 150, 22); stroke-opacity: 1;"/></g></g></g><g id="shape-ffce582a-c3ad-8097-8007-f92fa31752f6" style="opacity: 1;"><g class="fills" id="fills-ffce582a-c3ad-8097-8007-f92fa31752f6"><path d="M144.28692626953125,20.49609375C145.47900390625,20.52496337890625,146.28955078125,20.99078369140625,146.8658447265625,21.67498779296875C141.5316162109375,28.01446533203125,140.63427734375,29.0223388671875,133.3526611328125,38.0460205078125C130.66845703125,41.51971435546875,127.8736572265625,39.7249755859375,130.55792236328125,36.2540283203125L141.7421875,21.7803955078125C142.34820556640625,20.98388671875,143.28619384765625,20.50958251953125,144.28692626953125,20.4935302734375" style="font-variant: normal; stroke-opacity: 1; stroke: none; word-spacing: normal; text-decoration: none; isolation: auto; baseline-shift: baseline; color: rgb(0, 0, 0); fill-rule: evenodd; text-transform: none; overflow: visible; image-rendering: auto; stroke-dashoffset: 0; font-stretch: normal; text-anchor: start; text-indent: 0px; font-family: sans-serif; writing-mode: lr-tb; letter-spacing: normal; color-rendering: auto; stroke-width: 2.5; stroke-linejoin: miter; font-style: normal; font-weight: 400; stroke-dasharray: none; white-space: normal; stroke-miterlimit: 4; text-align: start; display: inline; shape-rendering: auto; line-height: normal; font-size: medium; text-rendering: auto; stroke-linecap: round; visibility: visible; direction: ltr; color-interpolation: srgb; clip-rule: nonzero; color-interpolation-filters: linearrgb; fill: rgb(255, 255, 255); fill-opacity: 0.298039;"/></g></g><g id="shape-ffce582a-c3ad-8097-8007-f92fa317bfc2" style="opacity: 1;"><g class="fills" id="fills-ffce582a-c3ad-8097-8007-f92fa317bfc2"><path d="M146.8895263671875,21.7066650390625C147.861083984375,22.89215087890625,147.8851318359375,24.59149169921875,146.94744873046875,25.80401611328125L135.76318359375,40.27764892578125C133.0789794921875,43.74859619140625,132.73687744140625,38.6644287109375,132.73687744140625,38.6644287109375C132.73687744140625,38.6644287109375,142.56585693359375,26.796142578125,146.8895263671875,21.709228515625" style="font-variant: normal; stroke-opacity: 1; stroke: none; word-spacing: normal; text-decoration: none; isolation: auto; baseline-shift: baseline; color: rgb(0, 0, 0); fill-rule: evenodd; text-transform: none; overflow: visible; image-rendering: auto; stroke-dashoffset: 0; font-stretch: normal; text-anchor: start; text-indent: 0px; font-family: sans-serif; writing-mode: lr-tb; letter-spacing: normal; color-rendering: auto; stroke-width: 2.5; stroke-linejoin: miter; font-style: normal; font-weight: 400; stroke-dasharray: none; white-space: normal; stroke-miterlimit: 4; text-align: start; display: inline; shape-rendering: auto; line-height: normal; font-size: medium; text-rendering: auto; stroke-linecap: round; visibility: visible; direction: ltr; color-interpolation: srgb; clip-rule: nonzero; color-interpolation-filters: linearrgb; fill: rgb(38, 50, 56); fill-opacity: 0.2;"/></g></g><g id="shape-ffce582a-c3ad-8097-8007-f92fa317bfc3" style="opacity: 1;"><g class="fills" id="fills-ffce582a-c3ad-8097-8007-f92fa317bfc3"><path d="M145.00537109375,21.11187744140625C146.157958984375,21.11187744140625,147.53167724609375,21.48565673828125,147.17376708984375,23.21453857421875C146.9027099609375,24.53289794921875,134.91058349609375,39.1986083984375,134.91058349609375,39.1986083984375C132.226318359375,42.67230224609375,128.347412109375,40.980224609375,131.0316162109375,37.50921630859375L142.17376708984375,23.1065673828125C142.85797119140625,22.343505859375,143.77374267578125,21.148681640625,145.00537109375,21.11187744140625" style="font-variant: normal; stroke-opacity: 1; stroke: none; word-spacing: normal; text-decoration: none; isolation: auto; baseline-shift: baseline; color: rgb(0, 0, 0); fill-rule: evenodd; text-transform: none; overflow: visible; image-rendering: auto; stroke-dashoffset: 0; font-stretch: normal; text-anchor: start; text-indent: 0px; font-family: sans-serif; writing-mode: lr-tb; letter-spacing: normal; color-rendering: auto; stroke-width: 2.5; stroke-linejoin: miter; font-style: normal; font-weight: 400; stroke-dasharray: none; white-space: normal; stroke-miterlimit: 4; text-align: start; display: inline; shape-rendering: auto; line-height: normal; font-size: medium; text-rendering: auto; stroke-linecap: round; visibility: visible; direction: ltr; color-interpolation: srgb; clip-rule: nonzero; color-interpolation-filters: linearrgb; fill: rgb(138, 176, 0); fill-opacity: 1;"/></g></g><g id="shape-ffce582a-c3ad-8097-8007-f92fa317bfc4"><g class="fills" id="fills-ffce582a-c3ad-8097-8007-f92fa317bfc4"><path d="M31.65521240234375,23.79083251953125L42.8394775390625,38.26446533203125" style="fill-rule: evenodd; stroke-linejoin: miter; stroke-dasharray: none; stroke-miterlimit: 4; stroke-linecap: round; fill: rgb(138, 176, 0); fill-opacity: 1;"/></g><g id="strokes-868f8bc0-5cca-8071-8007-f93041b0bfd1-ffce582a-c3ad-8097-8007-f92fa317bfc4" class="strokes" style="fill-rule: evenodd; stroke-linejoin: miter; stroke-dasharray: none; stroke-miterlimit: 4; stroke-linecap: round;"><g class="stroke-shape"><path d="M31.65521240234375,23.79083251953125L42.8394775390625,38.26446533203125" style="fill: none; stroke-width: 2.5; stroke: rgb(118, 150, 22); stroke-opacity: 1;"/></g></g></g><g id="shape-ffce582a-c3ad-8097-8007-f92fa317bfc5" style="opacity: 1;"><g class="fills" id="fills-ffce582a-c3ad-8097-8007-f92fa317bfc5"><path d="M31.71307373046875,20.49609375C30.52099609375,20.52496337890625,29.71044921875,20.99078369140625,29.1341552734375,21.67498779296875C34.4683837890625,28.01446533203125,35.36572265625,29.0223388671875,42.6473388671875,38.0460205078125C45.33154296875,41.51971435546875,48.12628173828125,39.7249755859375,45.44207763671875,36.2540283203125L34.2578125,21.7803955078125C33.65179443359375,20.98388671875,32.71380615234375,20.50958251953125,31.71307373046875,20.4935302734375" style="font-variant: normal; stroke-opacity: 1; stroke: none; word-spacing: normal; text-decoration: none; isolation: auto; baseline-shift: baseline; color: rgb(0, 0, 0); fill-rule: evenodd; text-transform: none; overflow: visible; image-rendering: auto; stroke-dashoffset: 0; font-stretch: normal; text-anchor: start; text-indent: 0px; font-family: sans-serif; writing-mode: lr-tb; letter-spacing: normal; color-rendering: auto; stroke-width: 2.5; stroke-linejoin: miter; font-style: normal; font-weight: 400; stroke-dasharray: none; white-space: normal; stroke-miterlimit: 4; text-align: start; display: inline; shape-rendering: auto; line-height: normal; font-size: medium; text-rendering: auto; stroke-linecap: round; visibility: visible; direction: ltr; color-interpolation: srgb; clip-rule: nonzero; color-interpolation-filters: linearrgb; fill: rgb(255, 255, 255); fill-opacity: 0.298039;"/></g></g><g id="shape-ffce582a-c3ad-8097-8007-f92fa317f063" style="opacity: 1;"><g class="fills" id="fills-ffce582a-c3ad-8097-8007-f92fa317f063"><path d="M29.11041259765625,21.7066650390625C28.138916015625,22.89215087890625,28.1148681640625,24.59149169921875,29.05255126953125,25.80401611328125L40.23681640625,40.27764892578125C42.9210205078125,43.74859619140625,43.26312255859375,38.6644287109375,43.26312255859375,38.6644287109375C43.26312255859375,38.6644287109375,33.43414306640625,26.796142578125,29.11041259765625,21.709228515625" style="font-variant: normal; stroke-opacity: 1; stroke: none; word-spacing: normal; text-decoration: none; isolation: auto; baseline-shift: baseline; color: rgb(0, 0, 0); fill-rule: evenodd; text-transform: none; overflow: visible; image-rendering: auto; stroke-dashoffset: 0; font-stretch: normal; text-anchor: start; text-indent: 0px; font-family: sans-serif; writing-mode: lr-tb; letter-spacing: normal; color-rendering: auto; stroke-width: 2.5; stroke-linejoin: miter; font-style: normal; font-weight: 400; stroke-dasharray: none; white-space: normal; stroke-miterlimit: 4; text-align: start; display: inline; shape-rendering: auto; line-height: normal; font-size: medium; text-rendering: auto; stroke-linecap: round; visibility: visible; direction: ltr; color-interpolation: srgb; clip-rule: nonzero; color-interpolation-filters: linearrgb; fill: rgb(38, 50, 56); fill-opacity: 0.2;"/></g></g><g id="shape-ffce582a-c3ad-8097-8007-f92fa317f064" style="opacity: 1;"><g class="fills" id="fills-ffce582a-c3ad-8097-8007-f92fa317f064"><path d="M30.99462890625,21.11187744140625C29.842041015625,21.11187744140625,28.46832275390625,21.48565673828125,28.82623291015625,23.21453857421875C29.0972900390625,24.53289794921875,41.08941650390625,39.1986083984375,41.08941650390625,39.1986083984375C43.773681640625,42.67230224609375,47.65264892578125,40.980224609375,44.9683837890625,37.50921630859375L33.82623291015625,23.1065673828125C33.14202880859375,22.343505859375,32.22625732421875,21.148681640625,30.99462890625,21.11187744140625" style="font-variant: normal; stroke-opacity: 1; stroke: none; word-spacing: normal; text-decoration: none; isolation: auto; baseline-shift: baseline; color: rgb(0, 0, 0); fill-rule: evenodd; text-transform: none; overflow: visible; image-rendering: auto; stroke-dashoffset: 0; font-stretch: normal; text-anchor: start; text-indent: 0px; font-family: sans-serif; writing-mode: lr-tb; letter-spacing: normal; color-rendering: auto; stroke-width: 2.5; stroke-linejoin: miter; font-style: normal; font-weight: 400; stroke-dasharray: none; white-space: normal; stroke-miterlimit: 4; text-align: start; display: inline; shape-rendering: auto; line-height: normal; font-size: medium; text-rendering: auto; stroke-linecap: round; visibility: visible; direction: ltr; color-interpolation: srgb; clip-rule: nonzero; color-interpolation-filters: linearrgb; fill: rgb(138, 176, 0); fill-opacity: 1;"/></g></g><g id="shape-ffce582a-c3ad-8097-8007-f92fa317f065" rx="0" ry="0" style="fill: rgb(0, 0, 0);"><g id="shape-ffce582a-c3ad-8097-8007-f92fa3183d87" style="opacity: 1;"><g class="fills" id="fills-ffce582a-c3ad-8097-8007-f92fa3183d87"><path d="M45.89495849609375,32.99603271484375L130.1058349609375,32.99603271484375C134.4794921875,32.99603271484375,138.0006103515625,36.51708984375,138.0006103515625,40.8907470703125L138.0006103515625,59.101318359375C138.0006103515625,63.4749755859375,134.4794921875,66.99603271484375,130.1058349609375,66.99603271484375L45.89495849609375,66.99603271484375C41.521240234375,66.99603271484375,38.00018310546875,63.4749755859375,38.00018310546875,59.101318359375L38.00018310546875,40.8907470703125C38.00018310546875,36.51708984375,41.521240234375,32.99603271484375,45.89495849609375,32.99603271484375Z" style="stroke-width: 3; stroke-linecap: round; stroke-miterlimit: 3; fill: rgb(174, 234, 0);"/></g></g><g id="shape-ffce582a-c3ad-8097-8007-f92fa3183d88" style="opacity: 1;"><g class="fills" id="fills-ffce582a-c3ad-8097-8007-f92fa3183d88"><path d="M45.89495849609375,40.6776123046875L130.1058349609375,40.6776123046875C134.4794921875,40.6776123046875,138.0006103515625,44.19866943359375,138.0006103515625,48.57232666015625L138.0006103515625,59.09857177734375C138.0006103515625,63.47222900390625,134.4794921875,66.9932861328125,130.1058349609375,66.9932861328125L45.89495849609375,66.9932861328125C41.521240234375,66.9932861328125,38.00018310546875,63.47222900390625,38.00018310546875,59.09857177734375L38.00018310546875,48.57232666015625C38.00018310546875,44.19866943359375,41.521240234375,40.6776123046875,45.89495849609375,40.6776123046875Z" style="stroke-width: 3; stroke-linecap: round; stroke-miterlimit: 3; fill: rgb(38, 50, 56); fill-opacity: 0.2;"/></g></g><g id="shape-ffce582a-c3ad-8097-8007-f92fa3183d89" style="opacity: 1;"><g class="fills" id="fills-ffce582a-c3ad-8097-8007-f92fa3183d89"><path d="M45.89495849609375,33.0013427734375L130.1058349609375,33.0013427734375C134.4794921875,33.0013427734375,138.0006103515625,36.52239990234375,138.0006103515625,40.89605712890625L138.0006103515625,51.42230224609375C138.0006103515625,55.79595947265625,134.4794921875,59.3170166015625,130.1058349609375,59.3170166015625L45.89495849609375,59.3170166015625C41.521240234375,59.3170166015625,38.00018310546875,55.79595947265625,38.00018310546875,51.42230224609375L38.00018310546875,40.89605712890625C38.00018310546875,36.52239990234375,41.521240234375,33.0013427734375,45.89495849609375,33.0013427734375Z" style="stroke-width: 3; stroke-linecap: round; stroke-miterlimit: 3; fill: rgb(255, 255, 255); fill-opacity: 0.298039;"/></g></g><g id="shape-ffce582a-c3ad-8097-8007-f92fa3186d60" style="opacity: 1;"><g class="fills" id="fills-ffce582a-c3ad-8097-8007-f92fa3186d60"><path d="M45.89495849609375,35.99603271484375L130.1058349609375,35.99603271484375C134.4794921875,35.99603271484375,138.0006103515625,38.878662109375,138.0006103515625,42.45916748046875L138.0006103515625,57.53546142578125C138.0006103515625,61.115966796875,134.4794921875,63.99853515625,130.1058349609375,63.99853515625L45.89495849609375,63.99853515625C41.521240234375,63.99853515625,38.00018310546875,61.115966796875,38.00018310546875,57.53546142578125L38.00018310546875,42.45916748046875C38.00018310546875,38.878662109375,41.521240234375,35.99603271484375,45.89495849609375,35.99603271484375Z" style="stroke-width: 3; stroke-linecap: round; stroke-miterlimit: 3; fill: rgb(174, 234, 0);"/></g></g></g><g id="shape-ffce582a-c3ad-8097-8007-f92fa3186d61" rx="0" ry="0" style="fill: rgb(0, 0, 0);"><g id="shape-ffce582a-c3ad-8097-8007-f92fa3186d62" style="opacity: 1;"><g class="fills" id="fills-ffce582a-c3ad-8097-8007-f92fa3186d62"><path d="M45.89471435546875,69.9942626953125L130.1055908203125,69.9942626953125C134.47930908203125,69.9942626953125,138.0003662109375,73.515380859375,138.0003662109375,77.88897705078125L138.0003662109375,130.099609375C138.0003662109375,134.47320556640625,134.47930908203125,137.9942626953125,130.1055908203125,137.9942626953125L45.89471435546875,137.9942626953125C41.52099609375,137.9942626953125,37.99993896484375,134.47320556640625,37.99993896484375,130.099609375L37.99993896484375,77.88897705078125C37.99993896484375,73.515380859375,41.52099609375,69.9942626953125,45.89471435546875,69.9942626953125Z" style="stroke-width: 3; stroke-linecap: round; stroke-miterlimit: 3; fill: rgb(25, 118, 210);"/></g></g><g id="shape-ffce582a-c3ad-8097-8007-f92fa3186d63" style="opacity: 1;"><g class="fills" id="fills-ffce582a-c3ad-8097-8007-f92fa3186d63"><path d="M45.89471435546875,103.78387451171875L130.1055908203125,103.78387451171875C134.47930908203125,103.78387451171875,138.0003662109375,107.304931640625,138.0003662109375,111.6785888671875L138.0003662109375,130.099609375C138.0003662109375,134.47320556640625,134.47930908203125,137.9942626953125,130.1055908203125,137.9942626953125L45.89471435546875,137.9942626953125C41.52099609375,137.9942626953125,37.99993896484375,134.47320556640625,37.99993896484375,130.099609375L37.99993896484375,111.6785888671875C37.99993896484375,107.304931640625,41.52099609375,103.78387451171875,45.89471435546875,103.78387451171875Z" style="stroke-width: 3; stroke-linecap: round; stroke-miterlimit: 3; fill: rgb(38, 50, 56); fill-opacity: 0.2;"/></g></g><g id="shape-ffce582a-c3ad-8097-8007-f92fa318a16a" style="opacity: 1;"><g class="fills" id="fills-ffce582a-c3ad-8097-8007-f92fa318a16a"><path d="M45.89471435546875,69.78387451171875L130.1055908203125,69.78387451171875C134.47930908203125,69.78387451171875,138.0003662109375,73.304931640625,138.0003662109375,77.6785888671875L138.0003662109375,96.099609375C138.0003662109375,100.47320556640625,134.47930908203125,103.9942626953125,130.1055908203125,103.9942626953125L45.89471435546875,103.9942626953125C41.52099609375,103.9942626953125,37.99993896484375,100.47320556640625,37.99993896484375,96.099609375L37.99993896484375,77.6785888671875C37.99993896484375,73.304931640625,41.52099609375,69.78387451171875,45.89471435546875,69.78387451171875Z" style="stroke-width: 3; stroke-linecap: round; stroke-miterlimit: 3; fill: rgb(255, 255, 255); fill-opacity: 0.2;"/></g></g><g id="shape-ffce582a-c3ad-8097-8007-f92fa318a16b" style="opacity: 1;"><g class="fills" id="fills-ffce582a-c3ad-8097-8007-f92fa318a16b"><path d="M45.89471435546875,72.99432373046875L130.1055908203125,72.99432373046875C134.47930908203125,72.99432373046875,138.0003662109375,76.1842041015625,138.0003662109375,80.14697265625L138.0003662109375,127.84161376953125C138.0003662109375,131.8040771484375,134.47930908203125,134.9942626953125,130.1055908203125,134.9942626953125L45.89471435546875,134.9942626953125C41.52099609375,134.9942626953125,37.99993896484375,131.8040771484375,37.99993896484375,127.84161376953125L37.99993896484375,80.14697265625C37.99993896484375,76.1842041015625,41.52099609375,72.99432373046875,45.89471435546875,72.99432373046875Z" style="stroke-width: 3; stroke-linecap: round; stroke-miterlimit: 3; fill: rgb(25, 118, 210);"/></g></g></g><g id="shape-ffce582a-c3ad-8097-8007-f92fa318a16c" rx="0" ry="0" style="fill: rgb(0, 0, 0);"><g id="shape-ffce582a-c3ad-8097-8007-f92fa318f5f8" style="opacity: 1;"><g class="fills" id="fills-ffce582a-c3ad-8097-8007-f92fa318f5f8"><path d="M88.0001220703125,87.61236572265625C80.42120361328125,87.61236572265625,74.0001220703125,92.8360595703125,72.123779296875,99.84918212890625L80.5791015625,99.84918212890625C82.08026123046875,97.1611328125,84.92132568359375,95.498779296875,88.0001220703125,95.507080078125C90.27276611328125,95.49298095703125,92.45635986328125,96.3895263671875,94.0633544921875,97.9964599609375C95.67041015625,99.603515625,96.56695556640625,101.787109375,96.5528564453125,104.0596923828125C96.56695556640625,106.332275390625,95.67041015625,108.515869140625,94.0633544921875,110.12286376953125C92.45635986328125,111.7298583984375,90.27276611328125,112.62640380859375,88.0001220703125,112.6123046875C84.701416015625,112.628662109375,81.69305419921875,110.7291259765625,80.28961181640625,107.743896484375L71.98956298828125,107.743896484375C73.6790771484375,115.0228271484375,80.231689453125,120.5069580078125,88.0001220703125,120.5069580078125C97.03704833984375,120.5069580078125,104.4476318359375,113.09649658203125,104.4476318359375,104.0596923828125C104.4476318359375,95.02288818359375,97.03704833984375,87.61236572265625,88.0001220703125,87.61236572265625" style="font-variant: normal; stroke-opacity: 1; stroke: none; word-spacing: normal; text-decoration: none; isolation: auto; baseline-shift: baseline; color: rgb(0, 0, 0); fill-rule: nonzero; text-transform: none; overflow: visible; image-rendering: auto; stroke-dashoffset: 0; font-stretch: normal; text-anchor: start; text-indent: 0px; font-family: sans-serif; writing-mode: lr-tb; letter-spacing: normal; color-rendering: auto; stroke-width: 3; stroke-linejoin: miter; font-style: normal; font-weight: 400; stroke-dasharray: none; white-space: normal; stroke-miterlimit: 4; text-align: start; display: inline; shape-rendering: auto; line-height: normal; font-size: medium; text-rendering: auto; stroke-linecap: round; visibility: visible; direction: ltr; color-interpolation: srgb; clip-rule: nonzero; color-interpolation-filters: linearrgb; fill: rgb(13, 71, 161); fill-opacity: 1;"/></g></g><g id="shape-ffce582a-c3ad-8097-8007-f92fa318f5f9" style="opacity: 1;"><g class="fills" id="fills-ffce582a-c3ad-8097-8007-f92fa318f5f9"><path d="M113.1318359375,104.0596923828125C113.1318359375,117.939453125,101.8800048828125,129.191162109375,88.0001220703125,129.191162109375C74.12030029296875,129.191162109375,62.86846923828125,117.939453125,62.86846923828125,104.0596923828125C62.86846923828125,90.179931640625,74.12030029296875,78.92816162109375,88.0001220703125,78.92816162109375C101.8800048828125,78.92816162109375,113.1318359375,90.179931640625,113.1318359375,104.0596923828125Z" style="fill: none; fill-opacity: 0.403922; stroke-linecap: round;"/></g><g id="strokes-868f8bc0-5cca-8071-8007-f93041b5d0ed-ffce582a-c3ad-8097-8007-f92fa318f5f9" class="strokes" style="fill: none; fill-opacity: 0.403922; stroke-linecap: round;"><g class="stroke-shape"><path d="M113.1318359375,104.0596923828125C113.1318359375,117.939453125,101.8800048828125,129.191162109375,88.0001220703125,129.191162109375C74.12030029296875,129.191162109375,62.86846923828125,117.939453125,62.86846923828125,104.0596923828125C62.86846923828125,90.179931640625,74.12030029296875,78.92816162109375,88.0001220703125,78.92816162109375C101.8800048828125,78.92816162109375,113.1318359375,90.179931640625,113.1318359375,104.0596923828125Z" style="fill: none; stroke-width: 1.9; stroke: rgb(13, 71, 161); stroke-opacity: 1;"/></g></g></g></g><g id="shape-ffce582a-c3ad-8097-8007-f92fa3190303" rx="0" ry="0" style="fill: rgb(0, 0, 0);"><g id="shape-ffce582a-c3ad-8097-8007-f92fa3190304" style="opacity: 1;"><g class="fills" id="fills-ffce582a-c3ad-8097-8007-f92fa3190304"><path d="M71.552734375,50.4356689453125C71.552734375,56.06744384765625,67.5762939453125,60.633056640625,62.67108154296875,60.633056640625C57.76593017578125,60.633056640625,53.78948974609375,56.06744384765625,53.78948974609375,50.4356689453125C53.78948974609375,44.803955078125,57.76593017578125,40.23834228515625,62.67108154296875,40.23834228515625C67.5762939453125,40.23834228515625,71.552734375,44.803955078125,71.552734375,50.4356689453125Z" style="stroke-width: 1.9; stroke-linecap: round; stroke-opacity: 0.697211; fill: rgb(38, 50, 56); fill-opacity: 0.2;"/></g></g><g id="shape-ffce582a-c3ad-8097-8007-f92fa3190305" style="opacity: 1;"><g class="fills" id="fills-ffce582a-c3ad-8097-8007-f92fa3190305"><path d="M71.552734375,51.75146484375C71.552734375,56.6566162109375,67.5762939453125,60.633056640625,62.67108154296875,60.633056640625C57.76593017578125,60.633056640625,53.78948974609375,56.6566162109375,53.78948974609375,51.75146484375C53.78948974609375,46.84637451171875,57.76593017578125,42.86993408203125,62.67108154296875,42.86993408203125C67.5762939453125,42.86993408203125,71.552734375,46.84637451171875,71.552734375,51.75146484375Z" style="stroke-width: 1.9; stroke-linecap: round; stroke-opacity: 0.697211; fill: rgb(255, 255, 255);"/></g></g></g><g id="shape-ffce582a-c3ad-8097-8007-f92fa3190306" rx="0" ry="0" style="fill: rgb(0, 0, 0);"><g id="shape-ffce582a-c3ad-8097-8007-f92fa3194ef7" style="opacity: 1;"><g class="fills" id="fills-ffce582a-c3ad-8097-8007-f92fa3194ef7"><path d="M122.86871337890625,50.4356689453125C122.86871337890625,56.06744384765625,118.89227294921875,60.633056640625,113.98712158203125,60.633056640625C109.0819091796875,60.633056640625,105.10546875,56.06744384765625,105.10546875,50.4356689453125C105.10546875,44.803955078125,109.0819091796875,40.23834228515625,113.98712158203125,40.23834228515625C118.89227294921875,40.23834228515625,122.86871337890625,44.803955078125,122.86871337890625,50.4356689453125Z" style="stroke-width: 1.9; stroke-linecap: round; stroke-opacity: 0.697211; fill: rgb(38, 50, 56); fill-opacity: 0.2;"/></g></g><g id="shape-ffce582a-c3ad-8097-8007-f92fa3194ef8" style="opacity: 1;"><g class="fills" id="fills-ffce582a-c3ad-8097-8007-f92fa3194ef8"><path d="M122.86871337890625,51.75146484375C122.86871337890625,56.6566162109375,118.89227294921875,60.633056640625,113.98712158203125,60.633056640625C109.0819091796875,60.633056640625,105.10546875,56.6566162109375,105.10546875,51.75146484375C105.10546875,46.84637451171875,109.0819091796875,42.86993408203125,113.98712158203125,42.86993408203125C118.89227294921875,42.86993408203125,122.86871337890625,46.84637451171875,122.86871337890625,51.75146484375Z" style="stroke-width: 1.9; stroke-linecap: round; stroke-opacity: 0.697211; fill: rgb(255, 255, 255);"/></g></g></g><g id="shape-ffce582a-c3ad-8097-8007-f92fa319be9f" style="opacity: 1;"><defs><radialGradient gradientUnits="userSpaceOnUse" r="59.662" cx="113" cy="-12.89" fy="-12.89" fx="113" gradientTransform="matrix(1.000000, 0.000000, 0.000000, 1.000000, -251.000000, -279.362000) matrix(0 1.96105 -1.97781 0 254.507 78.763)" id="render-46-b"><stop offset="0" stop-color="#fff" stop-opacity=".09803922"/><stop offset="1" stop-color="#fff" stop-opacity="0"/></radialGradient></defs><g class="fills" id="fills-ffce582a-c3ad-8097-8007-f92fa319be9f"><path d="M31.7149658203125,20.4730224609375C30.43701171875,20.43939208984375,29.2552490234375,21.149169921875,28.6845703125,22.293212890625C28.11383056640625,23.4371337890625,28.25750732421875,24.8082275390625,29.052978515625,25.8089599609375L38.5269775390625,38.07000732421875C38.1800537109375,38.9715576171875,38.00146484375,39.9290771484375,38,40.89501953125L38,59.10498046875C37.9952392578125,61.2003173828125,38.825439453125,63.2113037109375,40.30712890625,64.69287109375C41.7886962890625,66.174560546875,43.7996826171875,67.0047607421875,45.89501953125,67L130.10498046875,67C132.2001953125,67.0047607421875,134.2109375,66.1746826171875,135.6925048828125,64.6932373046875C137.1741943359375,63.2117919921875,138.0045166015625,61.201171875,138,59.10595703125L138,40.89501953125C138,39.89599609375,137.80999755859375,38.946044921875,137.4749755859375,38.0689697265625L146.947021484375,25.8089599609375C147.71673583984375,24.840576171875,147.878173828125,23.5220947265625,147.36474609375,22.3966064453125C146.851318359375,21.27099609375,145.74993896484375,20.528564453125,144.5140380859375,20.4749755859375C143.4305419921875,20.4281005859375,142.39361572265625,20.918212890625,141.74200439453125,21.7850341796875L132.72900390625,33.45098876953125C131.8861083984375,33.15362548828125,130.99884033203125,33.00146484375,130.10498046875,33.0009765625L45.89501953125,33.0009765625C44.9730224609375,33.0009765625,44.094970703125,33.16400146484375,43.27301025390625,33.45098876953125L34.25799560546875,21.7850341796875C33.6549072265625,20.982666015625,32.7183837890625,20.49951171875,31.7149658203125,20.4730224609375M45.89501953125,70C43.7996826171875,69.9952392578125,41.7886962890625,70.825439453125,40.30712890625,72.30712890625C38.825439453125,73.7886962890625,37.9952392578125,75.7996826171875,38,77.89501953125L38,130.10498046875C37.9952392578125,132.2003173828125,38.825439453125,134.2113037109375,40.30712890625,135.69287109375C41.7886962890625,137.174560546875,43.7996826171875,138.0047607421875,45.89501953125,138L130.10498046875,138C132.2001953125,138.0047607421875,134.2109375,137.1746826171875,135.6925048828125,135.6932373046875C137.1741943359375,134.2117919921875,138.0045166015625,132.201171875,138,130.10595703125L138,77.89501953125C138.0047607421875,75.7996826171875,137.174560546875,73.7886962890625,135.69287109375,72.30712890625C134.2113037109375,70.825439453125,132.2003173828125,69.9952392578125,130.10498046875,70Z" style="font-variant: normal; stroke-opacity: 1; stroke: none; word-spacing: normal; text-decoration: none; isolation: auto; baseline-shift: baseline; color: rgb(0, 0, 0); fill-rule: evenodd; text-transform: none; overflow: visible; fill: url(&quot;#render-46-b&quot;); image-rendering: auto; stroke-dashoffset: 0; font-stretch: normal; text-anchor: start; fill-opacity: 1; text-indent: 0px; font-family: sans-serif; writing-mode: lr-tb; letter-spacing: normal; color-rendering: auto; stroke-width: 6.57895; stroke-linejoin: miter; font-style: normal; font-weight: 400; stroke-dasharray: none; white-space: normal; stroke-miterlimit: 4; text-align: start; display: inline; shape-rendering: auto; line-height: normal; font-size: medium; text-rendering: auto; stroke-linecap: round; visibility: visible; direction: ltr; color-interpolation: srgb; clip-rule: nonzero; color-interpolation-filters: linearrgb;"/></g></g></g></svg>