<svg fill="none" height="242" viewBox="0 0 790 242" width="790" xmlns="http://www.w3.org/2000/svg"><path d="m0 0h790v242h-790z" fill="#fff"/><g fill="#2b5c62"><path d="m705.798 142.477c-5.897 0-11.159-.816-15.785-2.449-4.537-1.633-8.392-3.992-11.568-7.077-3.175-3.084-5.624-6.894-7.348-11.431-1.633-4.536-2.45-9.661-2.45-15.377 0-5.625.772-10.7959 2.314-15.5135 1.633-4.8083 3.992-8.9361 7.076-12.3836 3.085-3.5382 6.85-6.2598 11.295-8.165 4.446-1.9052 9.481-2.8578 15.105-2.8578 5.444 0 10.297.9073 14.561 2.7217 4.264 1.7237 7.803 4.3547 10.615 7.8929 2.903 3.5381 4.99 7.8928 6.26 13.064 1.361 5.0804 1.86 10.9323 1.497 17.5543l-56.067.545v-10.7508l44.772-.4083-6.941 5.4431c.636-4.808.318-8.7544-.952-11.839s-3.13-5.3526-5.58-6.8042c-2.358-1.4515-4.989-2.1773-7.892-2.1773-3.448 0-6.487.9072-9.118 2.7217-2.631 1.8144-4.672 4.4907-6.124 8.0289-1.451 3.4474-2.177 7.6209-2.177 12.5199 0 7.711 1.678 13.381 5.035 17.01 3.447 3.629 7.938 5.444 13.472 5.444 2.541 0 4.672-.318 6.396-.953 1.815-.726 3.266-1.633 4.355-2.722 1.179-1.088 2.087-2.313 2.722-3.674.725-1.361 1.315-2.722 1.769-4.082l17.01 3.674c-.816 3.357-2.041 6.396-3.674 9.117-1.542 2.631-3.629 4.945-6.26 6.941-2.631 1.905-5.806 3.356-9.526 4.354-3.629 1.089-7.893 1.633-12.792 1.633z"/><path d="m593.65 140.573v-97.2998h19.324v54.0251c2.813-1.9051 5.489-3.9464 8.029-6.1237 2.631-2.2681 4.99-4.6269 7.077-7.0764 2.177-2.4495 4.082-4.9443 5.715-7.4846 1.724-2.5402 3.175-5.035 4.355-7.4845h22.454c-1.361 3.4474-3.176 6.9402-5.444 10.4784-2.177 3.4474-4.808 6.6681-7.893 9.6619-2.993 2.9031-6.486 5.398-10.478 7.4846s-8.392 3.493-13.2 4.219v2.313c6.078-1.089 11.113-.998 15.105.272s7.258 3.312 9.798 6.124c2.631 2.722 4.718 5.897 6.26 9.526 1.542 3.538 2.948 7.121 4.219 10.75l3.129 10.615h-21.365l-1.769-6.668c-1.27-4.446-2.676-8.347-4.218-11.703-1.543-3.357-3.584-5.943-6.124-7.757-2.45-1.905-5.852-2.858-10.206-2.858h-5.444v28.986z"/><path d="m530.79 142.477c-3.992 0-7.53-.771-10.615-2.313-3.085-1.633-5.489-3.947-7.212-6.94-1.724-2.994-2.586-6.714-2.586-11.159 0-3.901.726-7.167 2.177-9.798 1.543-2.631 3.765-4.763 6.668-6.396 2.904-1.633 6.487-2.994 10.751-4.083 4.264-1.088 9.118-2.0409 14.561-2.8574 2.903-.4536 5.262-.8619 7.076-1.2248 1.905-.4536 3.312-1.134 4.219-2.0412.907-.998 1.361-2.4041 1.361-4.2186 0-2.5402-.907-4.7176-2.722-6.532-1.814-1.8144-4.672-2.7217-8.573-2.7217-2.631 0-5.081.4536-7.349 1.3609-2.177.9072-4.082 2.268-5.715 4.0825-1.542 1.8144-2.677 4.1278-3.402 6.9402l-17.283-5.3072c1.089-3.7196 2.631-6.9403 4.627-9.662 2.087-2.7216 4.581-4.9897 7.485-6.8041 2.903-1.9052 6.214-3.3114 9.934-4.2186 3.719-.9072 7.756-1.3609 12.111-1.3609 6.986 0 12.656 1.1341 17.011 3.4021 4.445 2.1774 7.756 5.6248 9.934 10.3424 2.177 4.6268 3.266 10.6145 3.266 17.963v12.2474c0 3.175.045 6.396.136 9.662.181 3.266.363 6.577.544 9.934.272 3.266.544 6.532.817 9.798h-17.283c-.363-2.268-.726-4.854-1.089-7.757-.272-2.993-.499-5.987-.68-8.981h-2.45c-1.27 3.447-3.084 6.577-5.443 9.39-2.359 2.812-5.262 5.08-8.709 6.804-3.357 1.633-7.213 2.449-11.567 2.449zm8.301-14.152c1.723 0 3.447-.318 5.171-.953 1.814-.635 3.538-1.497 5.171-2.586 1.724-1.179 3.266-2.63 4.627-4.354 1.451-1.724 2.631-3.674 3.538-5.852l-.272-11.431 3.13.681c-1.633 1.179-3.538 2.132-5.716 2.857-2.177.635-4.445 1.134-6.804 1.497-2.268.363-4.536.771-6.804 1.225s-4.309 1.043-6.124 1.769c-1.724.726-3.13 1.724-4.218 2.994-.998 1.179-1.497 2.858-1.497 5.035 0 2.812.907 5.035 2.721 6.668 1.815 1.633 4.173 2.45 7.077 2.45z"/><path d="m476.705 140.573v-97.2998h19.324v97.2998z"/><path d="m427.797 140.572v-45.7242h-11.295v-14.4248l19.052.8165v-2.5856c-3.176-.7258-5.807-1.8598-7.893-3.4021-1.996-1.633-3.448-3.5836-4.355-5.8516-.907-2.2681-1.361-4.6722-1.361-7.2124 0-3.9011.998-7.2578 2.994-10.0702 1.996-2.9031 4.808-5.1258 8.437-6.6681 3.629-1.633 7.893-2.4495 12.792-2.4495 4.173 0 7.938.5443 11.295 1.633 3.448.9979 6.215 2.2681 8.301 3.8103l-1.225 17.6909c-2.177-1.5423-4.626-2.8124-7.348-3.8104-2.722-.9979-5.307-1.4969-7.757-1.4969-2.721 0-4.99.7258-6.804 2.1774-1.724 1.4515-2.586 3.8103-2.586 7.0763 0 2.2681.454 4.0825 1.361 5.4433.998 1.2702 2.178 2.2227 3.538 2.8578 1.452.5443 2.858.9072 4.219 1.0887h16.33v15.3774h-18.643v45.7242z"/><path d="m314.957 140.572-17.69-71.4441h20.412l10.07 55.9301h2.586l11.975-55.9301h23.543l12.383 55.9301h2.586l9.798-55.9301h20.004l-17.827 71.4441h-26.944l-11.159-55.5223h-2.314l-10.614 55.5223z"/><path d="m261.106 73.7411 4.087-4.0828.441-.3626c.935-.6192 2.147-.6194 3.082 0l.441.3626.363.4414c.722 1.0906.601 2.5596-.363 3.5232l-8.051 8.0514v15.894l11.244-11.2436v-11.3816c0-1.5532 1.248-2.802 2.802-2.802l.563.0552c1.281.2597 2.239 1.3872 2.239 2.7468v5.7736l3.72-3.7203c.964-.9643 2.436-1.0826 3.527-.3586l.442.3586.362.4414c.723 1.0907.601 2.5632-.362 3.5272l-3.725 3.7242h5.762c1.554 0 2.802 1.2488 2.802 2.802s-1.248 2.8021-2.802 2.8021h-11.366l-11.239 11.2437h15.89l8.051-8.0515.441-.3626c.935-.6194 2.148-.619 3.082 0l.442.3626.362.4414c.723 1.0907.601 2.5594-.362 3.5232l-4.083 4.0869h5.277c.82 0 1.573.338 2.096.942.488.563.686 1.248.686 1.86s-.198 1.297-.686 1.86c-.523.603-1.276.942-2.096.942h-.8l-.036-.032h-4.473l4.083 4.083-1.115 1.116-.871.867.56-.556 1.426-1.427c1.102 1.102 1.102 2.867 0 3.969s-2.867 1.102-3.968 0l-8.032-8.036h-15.89l11.239 11.244h11.382c1.554 0 2.802 1.249 2.802 2.802s-1.249 2.802-2.802 2.802h-5.777l3.724 3.724c1.1 1.102 1.099 2.863 0 3.965-1.102 1.102-2.867 1.102-3.969 0l-3.724-3.724v5.765c0 1.554-1.248 2.802-2.802 2.802-1.553 0-2.802-1.249-2.802-2.802v-11.369l-11.24-11.24v15.894l8.052 8.051c1.1 1.102 1.1 2.863 0 3.965-1.102 1.102-2.867 1.102-3.969 0l-4.083-4.083v5.277c0 1.553-1.248 2.802-2.802 2.802-1.553 0-2.802-1.249-2.802-2.802v-5.277l-4.083 4.083c-1.101 1.102-2.867 1.102-3.968 0-1.1-1.102-1.1-2.864 0-3.965l8.035-8.035v-15.894l-11.239 11.239v11.37c0 1.553-1.249 2.802-2.802 2.802-1.554 0-2.802-1.249-2.802-2.802v-5.766l-3.721 3.725c-1.101 1.101-2.867 1.101-3.968 0-1.102-1.102-1.101-2.864 0-3.965l3.72-3.724h-5.778c-1.359-.001-2.483-.959-2.742-2.239l-.056-.563.056-.568c.26-1.279 1.384-2.233 2.742-2.234h11.386l11.24-11.244h-15.89l-8.036 8.036c-.578.577-1.346.872-2.14.819-.742-.049-1.368-.39-1.805-.823-.437-.435-.785-1.062-.839-1.805-.058-.795.235-1.563.804-2.144l.011-.016 4.087-4.083h-5.277c-1.359 0-2.486-.955-2.747-2.234l-.055-.568.055-.567c.261-1.28 1.388-2.235 2.747-2.235h5.277l-4.087-4.0867c-1.099-1.1013-1.099-2.8633 0-3.9646l.442-.3626c.935-.6207 2.15-.62 3.086 0l.441.3626 8.051 8.0513h15.89l-11.239-11.2435h-11.366c-1.359 0-2.486-.9556-2.747-2.2345l-.055-.5675.055-.5675c.261-1.2792 1.388-2.2346 2.747-2.2346h5.762l-3.725-3.7242c-1.101-1.1017-1.101-2.8669 0-3.9686.965-.9641 2.437-1.0827 3.528-.3586l.441.3586 3.72 3.7203v-5.7735c0-1.5529 1.249-2.8014 2.802-2.8021l.568.0552c1.28.2601 2.234 1.3876 2.234 2.7469v11.3815l11.24 11.2397v-15.894l-8.032-8.0317c-1.101-1.1017-1.101-2.863 0-3.9646l.442-.3626c.934-.6193 2.147-.6193 3.082 0l.441.3626 4.083 4.0789v-5.273c0-1.5527 1.249-2.8012 2.802-2.8021 1.554 0 2.802 1.2488 2.802 2.8021z"/><path d="m143.904 140.572v-43.2744-28.1693h16.058l-.136 21.3651h2.722c1.179-5.1712 2.858-9.4805 5.035-12.9279 2.177-3.4475 4.899-6.0331 8.165-7.7568 3.357-1.7237 7.303-2.5856 11.839-2.5856 8.256 0 14.516 2.9032 18.78 8.7094 4.354 5.8062 6.532 14.9238 6.532 27.3525v37.287h-19.732v-35.109c0-7.6211-1.134-13.1551-3.403-16.6026-2.177-3.5382-5.397-5.3072-9.661-5.3072-3.629 0-6.669 1.134-9.118 3.402-2.45 2.2681-4.309 5.2619-5.579 8.9816-1.18 3.6289-1.815 7.7112-1.906 12.2472v32.388z"/><path d="m90.7838 142.477c-5.8969 0-11.2042-.59-15.9217-1.769-4.6269-1.089-8.6187-2.767-11.9754-5.035-3.266-2.359-5.8516-5.262-7.7568-8.71-1.8144-3.538-2.8577-7.575-3.1299-12.111l17.1465-5.58c.1815 4.083 1.1794 7.485 2.9939 10.207 1.9052 2.721 4.5815 4.717 8.0289 5.987 3.4475 1.27 7.3032 1.905 11.5671 1.905 4.0825 0 7.53-.499 10.3426-1.496 2.812-.998 4.944-2.314 6.396-3.947 1.451-1.724 2.177-3.583 2.177-5.579 0-2.359-.907-4.264-2.722-5.716-1.814-1.451-4.309-2.676-7.484-3.674-3.0848-.998-6.623-1.951-10.6147-2.858-4.4454-.998-8.8455-2.132-13.2002-3.402-4.2639-1.27-8.165-2.903-11.7032-4.8989-3.4474-1.9959-6.2144-4.5815-8.3011-7.7567-1.9958-3.1753-2.9938-7.1671-2.9938-11.9754 0-5.5341 1.3608-10.297 4.0825-14.2888 2.8124-4.0825 6.8949-7.2577 12.2475-9.5258 5.3527-2.2681 11.794-3.4021 19.3239-3.4021 7.6207 0 14.1071 1.134 19.4601 3.4021 5.443 2.1773 9.662 5.3073 12.656 9.3898 2.993 3.9917 4.627 8.7547 4.899 14.2887l-17.691 4.899c0-2.8124-.454-5.2619-1.361-7.3485s-2.177-3.8103-3.81-5.1711c-1.633-1.4516-3.6746-2.5403-6.1242-3.266-2.3587-.7258-5.0804-1.0887-8.165-1.0887-3.5381 0-6.6227.4536-9.2537 1.3608-2.5402.9072-4.4907 2.132-5.8516 3.6743-1.2701 1.5423-1.9051 3.3567-1.9051 5.4433 0 2.4495.9979 4.4908 2.9938 6.1238 2.0866 1.5422 4.8083 2.8124 8.165 3.8103 3.4475.9979 7.2125 1.9505 11.295 2.8578 3.901.8165 7.8478 1.8598 11.8388 3.1299 4.083 1.1794 7.848 2.767 11.295 4.7629 3.539 1.9052 6.351 4.5361 8.438 7.8933 2.177 3.266 3.266 7.393 3.266 12.383 0 5.443-1.452 10.206-4.355 14.289-2.903 4.082-7.258 7.258-13.064 9.526-5.716 2.177-12.792 3.266-21.2292 3.266z"/><path d="m720.21 198.56v-13.716l-.052-12.997h4.932l-.36 9.966h.771c.274-2.329.736-4.264 1.387-5.805.651-1.575 1.524-2.757 2.62-3.545 1.13-.822 2.466-1.233 4.007-1.233.411 0 .839.035 1.284.103.445.069.942.189 1.49.36l-.257 5.959c-.548-.24-1.096-.411-1.644-.514s-1.062-.154-1.541-.154c-1.336 0-2.483.411-3.442 1.233-.959.788-1.747 1.918-2.363 3.39-.582 1.473-1.01 3.203-1.284 5.189v11.764z"/><path d="m703.43 199.228c-2.157 0-4.058-.309-5.702-.925-1.61-.651-2.979-1.575-4.11-2.774-1.095-1.199-1.935-2.62-2.517-4.264-.548-1.678-.822-3.545-.822-5.599 0-2.089.274-4.007.822-5.754s1.353-3.271 2.415-4.572c1.096-1.336 2.431-2.363 4.007-3.082 1.575-.719 3.39-1.079 5.445-1.079 1.884 0 3.579.325 5.086.976 1.507.616 2.757 1.558 3.75 2.825 1.027 1.233 1.781 2.774 2.26 4.624.48 1.815.651 3.921.514 6.318l-20.754.206v-3.493l17.209-.154-1.695 2.106c.171-1.952 0-3.579-.514-4.88-.513-1.302-1.267-2.278-2.26-2.929-.993-.685-2.175-1.027-3.545-1.027-1.541 0-2.859.394-3.955 1.182-1.096.787-1.935 1.917-2.517 3.39-.583 1.438-.874 3.168-.874 5.189 0 3.082.668 5.411 2.004 6.986 1.37 1.575 3.305 2.363 5.805 2.363 1.096 0 2.02-.137 2.774-.411.787-.308 1.438-.702 1.952-1.181.514-.48.907-1.028 1.181-1.644.309-.617.514-1.267.617-1.952l4.983.924c-.24 1.302-.651 2.483-1.233 3.545-.548 1.027-1.301 1.935-2.26 2.723-.959.753-2.107 1.335-3.442 1.746-1.336.411-2.877.617-4.624.617z"/><path d="m674.684 199.228c-2.157 0-4.058-.309-5.702-.925-1.61-.651-2.98-1.575-4.11-2.774-1.096-1.199-1.935-2.62-2.517-4.264-.548-1.678-.822-3.545-.822-5.599 0-2.089.274-4.007.822-5.754s1.353-3.271 2.415-4.572c1.096-1.336 2.431-2.363 4.007-3.082 1.575-.719 3.39-1.079 5.445-1.079 1.883 0 3.579.325 5.086.976 1.507.616 2.757 1.558 3.75 2.825 1.027 1.233 1.781 2.774 2.26 4.624.48 1.815.651 3.921.514 6.318l-20.754.206v-3.493l17.209-.154-1.695 2.106c.171-1.952 0-3.579-.514-4.88-.514-1.302-1.267-2.278-2.26-2.929-.993-.685-2.175-1.027-3.545-1.027-1.541 0-2.859.394-3.955 1.182-1.096.787-1.935 1.917-2.518 3.39-.582 1.438-.873 3.168-.873 5.189 0 3.082.668 5.411 2.004 6.986 1.37 1.575 3.305 2.363 5.805 2.363 1.096 0 2.02-.137 2.774-.411.787-.308 1.438-.702 1.952-1.181.513-.48.907-1.028 1.181-1.644.309-.617.514-1.267.617-1.952l4.983.924c-.24 1.302-.651 2.483-1.233 3.545-.548 1.027-1.302 1.935-2.261 2.723-.958.753-2.106 1.335-3.441 1.746-1.336.411-2.877.617-4.624.617z"/><path d="m653.345 199.125c-2.637 0-4.607-.719-5.908-2.158-1.267-1.438-1.901-3.613-1.901-6.524v-14.024h-3.75l.052-4.367h2.157c1.062-.034 1.832-.257 2.312-.668.479-.445.77-1.13.873-2.055l.462-3.39h3.34v5.908h7.192v4.674h-7.192v13.665c0 1.336.308 2.312.924 2.928.617.583 1.507.874 2.672.874.616 0 1.25-.086 1.9-.257.651-.171 1.267-.463 1.85-.874v5.343c-.959.343-1.85.582-2.672.719s-1.592.206-2.311.206z"/><path d="m614.357 198.56v-15.617l-.051-11.096h4.88l-.36 9.349h.771c.411-2.26 1.01-4.126 1.798-5.599.788-1.507 1.815-2.62 3.082-3.339s2.774-1.079 4.521-1.079c3.014 0 5.274 1.062 6.781 3.185 1.541 2.123 2.312 5.36 2.312 9.709v14.487h-5.6v-13.973c0-2.945-.445-5.103-1.336-6.473-.856-1.37-2.174-2.055-3.955-2.055-1.507 0-2.808.497-3.904 1.49-1.062.959-1.884 2.312-2.466 4.058-.548 1.713-.856 3.699-.925 5.959v10.994z"/><path d="m593.188 199.228c-3.048 0-5.325-1.045-6.832-3.134-1.507-2.123-2.26-5.342-2.26-9.658v-14.589h5.651v14.178c0 2.843.411 4.949 1.232 6.319.822 1.37 2.141 2.055 3.956 2.055 1.062 0 1.986-.257 2.774-.771.822-.513 1.524-1.25 2.106-2.209.617-.959 1.096-2.123 1.439-3.493.342-1.37.565-2.928.668-4.675v-11.404h5.548v15.052l.051 11.661h-4.829l.308-9.195h-.719c-.411 2.294-1.01 4.178-1.798 5.65-.788 1.439-1.798 2.5-3.031 3.185-1.198.685-2.62 1.028-4.264 1.028z"/><path d="m572.115 198.56v-35.96h5.497v35.96z"/><path d="m553.53 199.228c-2.568 0-4.846-.531-6.832-1.593-1.952-1.096-3.493-2.688-4.623-4.777-1.096-2.089-1.644-4.658-1.644-7.706 0-3.151.565-5.754 1.695-7.808 1.164-2.055 2.723-3.596 4.675-4.624 1.986-1.027 4.195-1.541 6.627-1.541 2.534 0 4.777.531 6.729 1.592 1.987 1.062 3.545 2.638 4.675 4.727s1.695 4.692 1.695 7.808c0 3.117-.565 5.719-1.695 7.808-1.13 2.055-2.688 3.596-4.675 4.624-1.952.993-4.161 1.49-6.627 1.49zm.154-4.418c1.507 0 2.792-.36 3.853-1.079 1.096-.719 1.935-1.781 2.517-3.185.583-1.404.874-3.082.874-5.034 0-2.021-.308-3.751-.925-5.189-.582-1.473-1.438-2.603-2.568-3.39-1.131-.788-2.501-1.182-4.11-1.182-1.507 0-2.808.36-3.904 1.079-1.062.719-1.901 1.781-2.518 3.185-.582 1.37-.873 3.048-.873 5.034 0 3.082.685 5.48 2.055 7.192 1.37 1.713 3.236 2.569 5.599 2.569z"/><path d="m520.559 198.56-11.559-33.905h6.113l9.144 29.024h.463l9.092-29.024h6.062l-11.558 33.905z"/></g></svg>