<svg width="170" height="25" viewBox="0 0 170 25" fill="none" xmlns="http://www.w3.org/2000/svg">
<path d="M162.009 24.6502C160.547 24.6502 159.243 24.4478 158.097 24.0432C156.973 23.6385 156.017 23.054 155.231 22.2897C154.444 21.5253 153.837 20.5812 153.41 19.4571C153.005 18.3331 152.803 17.0629 152.803 15.6466C152.803 14.2528 152.994 12.9714 153.376 11.8025C153.781 10.611 154.365 9.58811 155.129 8.73384C155.894 7.8571 156.827 7.18268 157.928 6.71058C159.03 6.23849 160.278 6.00244 161.671 6.00244C163.02 6.00244 164.223 6.22725 165.279 6.67686C166.336 7.10399 167.213 7.75593 167.91 8.63268C168.629 9.50942 169.146 10.5885 169.461 11.8699C169.798 13.1288 169.922 14.5788 169.832 16.2199L155.939 16.3548V13.6908L167.033 13.5897L165.313 14.9385C165.471 13.747 165.392 12.7691 165.077 12.0048C164.762 11.2404 164.302 10.6784 163.695 10.3187C163.11 9.95904 162.458 9.77919 161.739 9.77919C160.885 9.77919 160.131 10.004 159.479 10.4536C158.828 10.9032 158.322 11.5664 157.962 12.4432C157.602 13.2974 157.423 14.3315 157.423 15.5455C157.423 17.4563 157.838 18.8614 158.67 19.7606C159.524 20.6598 160.637 21.1094 162.009 21.1094C162.638 21.1094 163.166 21.0308 163.593 20.8734C164.043 20.6936 164.403 20.4687 164.673 20.199C164.965 19.9292 165.19 19.6257 165.347 19.2885C165.527 18.9513 165.673 18.6141 165.785 18.2769L170 19.1874C169.798 20.0191 169.495 20.7722 169.09 21.4467C168.708 22.0986 168.191 22.6719 167.539 23.1664C166.887 23.6385 166.1 23.9982 165.178 24.2455C164.279 24.5153 163.223 24.6502 162.009 24.6502Z" fill="#2B5C62"/>
<path d="M134.219 24.1779V0.0673828H139.007V13.4546C139.704 12.9825 140.367 12.4767 140.997 11.9372C141.649 11.3752 142.233 10.7907 142.75 10.1837C143.29 9.5767 143.762 8.95848 144.166 8.32903C144.594 7.69957 144.953 7.08135 145.246 6.47437H150.809C150.472 7.32864 150.023 8.19414 149.461 9.07089C148.921 9.92515 148.269 10.7232 147.505 11.4651C146.763 12.1845 145.897 12.8027 144.908 13.3197C143.919 13.8368 142.829 14.1852 141.637 14.3651V14.9383C143.144 14.6686 144.391 14.6911 145.38 15.0058C146.37 15.3205 147.179 15.8263 147.808 16.5232C148.46 17.1976 148.977 17.9845 149.359 18.8837C149.742 19.7604 150.09 20.6484 150.405 21.5477L151.18 24.1779H145.886L145.448 22.5256C145.133 21.424 144.785 20.4573 144.402 19.6256C144.02 18.7938 143.515 18.1531 142.885 17.7035C142.278 17.2314 141.435 16.9953 140.356 16.9953H139.007V24.1779H134.219Z" fill="#2B5C62"/>
<path d="M118.642 24.6502C117.653 24.6502 116.776 24.4591 116.012 24.0769C115.248 23.6722 114.652 23.099 114.225 22.3571C113.798 21.6153 113.584 20.6936 113.584 19.592C113.584 18.6253 113.764 17.816 114.124 17.1641C114.506 16.5122 115.056 15.9839 115.776 15.5792C116.495 15.1746 117.383 14.8373 118.44 14.5676C119.496 14.2978 120.699 14.0618 122.048 13.8594C122.767 13.747 123.352 13.6459 123.801 13.5559C124.274 13.4435 124.622 13.2749 124.847 13.0501C125.072 12.8028 125.184 12.4544 125.184 12.0048C125.184 11.3753 124.959 10.8358 124.51 10.3862C124.06 9.93656 123.352 9.71175 122.385 9.71175C121.733 9.71175 121.126 9.82415 120.564 10.049C120.025 10.2738 119.553 10.611 119.148 11.0606C118.766 11.5102 118.485 12.0835 118.305 12.7804L114.022 11.4652C114.292 10.5435 114.674 9.74547 115.169 9.07105C115.686 8.39663 116.304 7.83462 117.024 7.385C117.743 6.91291 118.563 6.56446 119.485 6.33965C120.407 6.11484 121.407 6.00244 122.486 6.00244C124.217 6.00244 125.622 6.28345 126.701 6.84547C127.803 7.385 128.624 8.23927 129.163 9.40826C129.703 10.5548 129.972 12.0385 129.972 13.8594V16.8943C129.972 17.6811 129.984 18.4792 130.006 19.2885C130.051 20.0978 130.096 20.9184 130.141 21.7501C130.208 22.5594 130.276 23.3688 130.343 24.1781H126.061C125.971 23.616 125.881 22.9753 125.791 22.256C125.724 21.5141 125.667 20.7722 125.622 20.0304H125.015C124.701 20.8846 124.251 21.6602 123.667 22.3571C123.082 23.054 122.363 23.616 121.508 24.0432C120.677 24.4478 119.721 24.6502 118.642 24.6502ZM120.699 21.1432C121.126 21.1432 121.553 21.0645 121.981 20.9071C122.43 20.7498 122.857 20.5362 123.262 20.2664C123.689 19.9742 124.071 19.6145 124.408 19.1874C124.768 18.7602 125.06 18.2769 125.285 17.7373L125.218 14.9048L125.993 15.0734C125.589 15.3656 125.117 15.6017 124.577 15.7815C124.037 15.9389 123.475 16.0625 122.891 16.1525C122.329 16.2424 121.767 16.3435 121.205 16.4559C120.643 16.5684 120.137 16.7145 119.687 16.8943C119.26 17.0742 118.912 17.3215 118.642 17.6362C118.395 17.9284 118.271 18.3443 118.271 18.8839C118.271 19.5808 118.496 20.1315 118.946 20.5362C119.395 20.9408 119.98 21.1432 120.699 21.1432Z" fill="#2B5C62"/>
<path d="M105.24 24.1779V0.0673828H110.029V24.1779H105.24Z" fill="#2B5C62"/>
<path d="M93.1211 24.178V12.8477H90.3223V9.27327L95.0432 9.4756V8.8349C94.2564 8.65505 93.6044 8.37405 93.0874 7.99187C92.5928 7.58722 92.2331 7.10389 92.0083 6.54187C91.7835 5.97986 91.6711 5.38412 91.6711 4.75466C91.6711 3.78799 91.9184 2.95621 92.413 2.25931C92.9075 1.53992 93.6044 0.989148 94.5037 0.606976C95.4029 0.202325 96.4595 0 97.6734 0C98.7075 0 99.6405 0.134884 100.472 0.404651C101.327 0.651939 102.012 0.966668 102.529 1.34884L102.226 5.73257C101.686 5.3504 101.079 5.03567 100.405 4.78838C99.7304 4.54109 99.0897 4.41745 98.4827 4.41745C97.8083 4.41745 97.2463 4.59729 96.7967 4.95698C96.3696 5.31668 96.156 5.90117 96.156 6.71048C96.156 7.27249 96.2684 7.72211 96.4932 8.05932C96.7405 8.37405 97.0327 8.61009 97.37 8.76746C97.7296 8.90234 98.0781 8.99226 98.4153 9.03722H102.462V12.8477H97.842V24.178H93.1211Z" fill="#2B5C62"/>
<path d="M65.1601 24.1781L60.7764 6.47461H65.8345L68.3299 20.3339H68.9706L71.938 6.47461H77.7717L80.8404 20.3339H81.4811L83.909 6.47461H88.866L84.4485 24.1781H77.7717L75.0066 10.42H74.4334L71.8031 24.1781H65.1601Z" fill="#2B5C62"/>
<path d="M61.0024 15.3856H58.488L60.3535 17.2514C60.4312 17.3291 60.4312 17.4496 60.3535 17.5274C60.2757 17.6051 60.1553 17.6051 60.0775 17.5274L57.9401 15.3895H52.5885L56.3738 19.1755H59.4013C59.5101 19.1755 59.5956 19.261 59.5956 19.3699C59.5956 19.4787 59.5101 19.5642 59.4013 19.5642H56.7626L58.5386 21.3406C58.6164 21.4183 58.6164 21.5388 58.5386 21.6165C58.4609 21.6943 58.3404 21.6943 58.2627 21.6165L56.4867 19.8402V22.4756C56.4867 22.5845 56.4012 22.67 56.2923 22.67C56.1835 22.67 56.098 22.5845 56.098 22.4756V19.4516L52.3127 15.6656V21.0181L54.4541 23.1598C54.5318 23.2376 54.5318 23.3581 54.4541 23.4358C54.3763 23.5136 54.2558 23.5136 54.1781 23.4358L52.3127 21.5701V24.0849C52.3127 24.1937 52.2272 24.2792 52.1184 24.2792C52.0095 24.2792 51.924 24.1937 51.924 24.0849V21.5701L50.0586 23.4358C49.9809 23.5136 49.8604 23.5136 49.7827 23.4358C49.7049 23.3581 49.705 23.2376 49.7827 23.1598L51.9202 21.022V15.6695L48.1348 19.4555V22.4795C48.1348 22.5883 48.0493 22.6739 47.9405 22.6739C47.8317 22.6739 47.7462 22.5883 47.7462 22.4795V19.8441L45.9702 21.6204C45.8924 21.6982 45.7719 21.6982 45.6942 21.6204C45.6165 21.5427 45.6165 21.4222 45.6942 21.3444L47.4703 19.5681H44.8315C44.7227 19.5681 44.6372 19.4826 44.6372 19.3737C44.6372 19.2649 44.7227 19.1794 44.8315 19.1794H47.859L51.6444 15.3934H46.2928L44.1553 17.5312C43.9765 17.71 43.7006 17.438 43.8794 17.2553L45.7448 15.3895H43.2304C43.1216 15.3895 43.0361 15.304 43.0361 15.1952C43.0361 15.0863 43.1216 15.0008 43.2304 15.0008H45.7448L43.8794 13.135C43.8016 13.0573 43.8016 12.9368 43.8794 12.8591C43.9571 12.7813 44.0776 12.7813 44.1553 12.8591L46.2967 15.0008H51.6482L47.8629 11.2148H44.8394C44.7306 11.2148 44.6451 11.1293 44.6451 11.0205C44.6451 10.9116 44.7306 10.8261 44.8394 10.8261H47.4744L45.6983 9.04976C45.6206 8.97202 45.6206 8.85152 45.6983 8.77378C45.7761 8.69603 45.8965 8.69604 45.9743 8.77378L47.7503 10.5501V7.91095C47.7503 7.80212 47.8358 7.7166 47.9446 7.7166C48.0535 7.7166 48.139 7.80212 48.139 7.91095V10.939L51.9243 14.7249V9.37246L49.7868 7.2346C49.7091 7.15686 49.7091 7.03636 49.7868 6.95862C49.8645 6.88087 49.985 6.88088 50.0627 6.95862L51.9282 8.82438V6.30958C51.9282 6.20075 52.0137 6.11523 52.1225 6.11523C52.2313 6.11523 52.3168 6.20075 52.3168 6.30958V8.82438L54.1822 6.95862C54.26 6.88088 54.3804 6.88088 54.4582 6.95862C54.5359 7.03636 54.5359 7.15686 54.4582 7.2346L52.3168 9.37634V14.7288L56.1021 10.9428V7.91483C56.1021 7.806 56.1876 7.72048 56.2965 7.72048C56.4053 7.72048 56.4908 7.806 56.4908 7.91483V10.554L58.2668 8.77766C58.3446 8.69992 58.465 8.69992 58.5428 8.77766C58.6205 8.8554 58.6205 8.9759 58.5428 9.05364L56.7667 10.83H59.4017C59.5105 10.83 59.596 10.9155 59.596 11.0243C59.596 11.1332 59.5105 11.2187 59.4017 11.2187H56.3782L52.5929 15.0047H57.9444L60.0858 12.8629C60.1635 12.7852 60.284 12.7852 60.3617 12.8629C60.4395 12.9407 60.4395 13.0612 60.3617 13.1389L58.4963 15.0047H61.0107C61.2633 15.0047 61.2633 15.3934 61.0107 15.3934L61.0024 15.3856Z" fill="#2B5C62"/>
<path d="M51.8154 7.61719L52.8281 6.60547L52.9375 6.51562C53.1691 6.36219 53.4696 6.36214 53.7012 6.51562L53.8105 6.60547L53.9004 6.71484C54.0793 6.9851 54.0493 7.34911 53.8105 7.58789L51.8154 9.58301V13.5215L54.6016 10.7354V7.91504C54.6016 7.53014 54.9109 7.2207 55.2959 7.2207L55.4355 7.23438C55.7529 7.29874 55.9902 7.57813 55.9902 7.91504V9.3457L56.9121 8.42383C57.1511 8.18488 57.5158 8.15556 57.7861 8.33496L57.8955 8.42383L57.9854 8.5332C58.1645 8.80348 58.1343 9.16836 57.8955 9.40723L56.9727 10.3301H58.4004C58.7854 10.3301 59.0947 10.6395 59.0947 11.0244C59.0947 11.4093 58.7854 11.7188 58.4004 11.7188H55.584L52.7988 14.5049H56.7363L58.7314 12.5098L58.8408 12.4199C59.0724 12.2664 59.3729 12.2665 59.6045 12.4199L59.7139 12.5098L59.8037 12.6191C59.9828 12.8894 59.9526 13.2534 59.7139 13.4922L58.7021 14.5049H60.0098C60.2131 14.5049 60.3997 14.5887 60.5293 14.7383C60.6502 14.8778 60.6992 15.0475 60.6992 15.1992C60.6992 15.3509 60.6501 15.5207 60.5293 15.6602C60.3997 15.8096 60.213 15.8935 60.0098 15.8936H59.8115L59.8027 15.8857H58.6943L59.7061 16.8975L59.4297 17.1738L59.2139 17.3887L59.3525 17.251L59.7061 16.8975C59.979 17.1705 59.979 17.6079 59.7061 17.8809C59.433 18.1539 58.9956 18.1539 58.7227 17.8809L56.7324 15.8896H52.7949L55.5801 18.6758H58.4004C58.7854 18.6758 59.0947 18.9852 59.0947 19.3701C59.0946 19.7549 58.7853 20.0644 58.4004 20.0645H56.9688L57.8916 20.9873C58.1641 21.2602 58.1641 21.6968 57.8916 21.9697C57.6186 22.2428 57.1812 22.2427 56.9082 21.9697L55.9854 21.0469V22.4756C55.9854 22.8605 55.6761 23.1699 55.291 23.1699C54.9061 23.1697 54.5967 22.8604 54.5967 22.4756V19.6582L51.8115 16.873V20.8115L53.8066 22.8066C54.0794 23.0796 54.0794 23.5161 53.8066 23.7891C53.5336 24.0621 53.0962 24.0621 52.8232 23.7891L51.8115 22.7773V24.085C51.8115 24.4698 51.5022 24.7793 51.1172 24.7793C50.7323 24.7792 50.4229 24.4697 50.4229 24.085V22.7773L49.4111 23.7891C49.1381 24.0621 48.7007 24.0621 48.4277 23.7891C48.1552 23.5161 48.1553 23.0795 48.4277 22.8066L50.4189 20.8154V16.877L47.6338 19.6621V22.4795C47.6338 22.8644 47.3245 23.1738 46.9395 23.1738C46.5544 23.1738 46.2451 22.8644 46.2451 22.4795V21.0508L45.3232 21.9736C45.0502 22.2467 44.6128 22.2467 44.3398 21.9736C44.0669 21.7006 44.067 21.2642 44.3398 20.9912L45.2617 20.0684H43.8301C43.4933 20.0681 43.2147 19.8308 43.1504 19.5137L43.1367 19.374L43.1504 19.2334C43.2148 18.9165 43.4934 18.6799 43.8301 18.6797H46.6514L49.4365 15.8936H45.499L43.5078 17.8848C43.3646 18.0279 43.1743 18.101 42.9775 18.0879C42.7937 18.0756 42.6385 17.9912 42.5303 17.8838C42.4219 17.7762 42.3357 17.6208 42.3223 17.4365C42.308 17.2397 42.3806 17.0492 42.5215 16.9053L42.5244 16.9014L43.5371 15.8896H42.2295C41.8927 15.8896 41.6134 15.6528 41.5488 15.3359L41.5352 15.1953L41.5488 15.0547C41.6133 14.7376 41.8926 14.501 42.2295 14.501H43.5371L42.5244 13.4883C42.2519 13.2154 42.2519 12.7788 42.5244 12.5059L42.6338 12.416C42.8655 12.2622 43.1667 12.2624 43.3984 12.416L43.5078 12.5059L45.5029 14.501H49.4404L46.6553 11.7148H43.8389C43.5021 11.7148 43.2228 11.4781 43.1582 11.1611L43.1445 11.0205L43.1582 10.8799C43.2228 10.5629 43.502 10.3262 43.8389 10.3262H45.2666L44.3438 9.40332C44.0708 9.13032 44.0708 8.69291 44.3438 8.41992C44.5828 8.181 44.9475 8.15163 45.2178 8.33105L45.3271 8.41992L46.249 9.3418V7.91113C46.249 7.52634 46.5585 7.21696 46.9434 7.2168L47.084 7.23047C47.4012 7.29493 47.6377 7.57431 47.6377 7.91113V10.7314L50.4229 13.5166V9.57812L48.4326 7.58789C48.1597 7.31489 48.1597 6.87846 48.4326 6.60547L48.542 6.51562C48.7736 6.36216 49.0741 6.36217 49.3057 6.51562L49.415 6.60547L50.4268 7.61621V6.30957C50.4268 5.92482 50.7363 5.61546 51.1211 5.61523C51.5061 5.61523 51.8154 5.92468 51.8154 6.30957V7.61719Z" fill="#2B5C62"/>
<path d="M22.7734 24.1781V13.4548V6.47454H26.7525L26.7188 11.7687H27.3932C27.6855 10.4873 28.1014 9.4195 28.6409 8.56524C29.1804 7.71097 29.8548 7.07027 30.6642 6.64314C31.4959 6.21601 32.4738 6.00244 33.5979 6.00244C35.6436 6.00244 37.1948 6.72182 38.2514 8.16059C39.3304 9.59935 39.87 11.8587 39.87 14.9385V24.1781H34.9804V15.478C34.9804 13.5897 34.6994 12.2183 34.1374 11.3641C33.5979 10.4873 32.7998 10.049 31.7432 10.049C30.844 10.049 30.0909 10.33 29.4839 10.892C28.8769 11.454 28.4161 12.1959 28.1014 13.1176C27.8091 14.0168 27.6517 15.0284 27.6293 16.1525V24.1781H22.7734Z" fill="#2B5C62"/>
<path d="M9.61048 24.6502C8.14924 24.6502 6.83412 24.5041 5.66513 24.2119C4.51861 23.9421 3.52946 23.5262 2.69768 22.9642C1.88838 22.3797 1.24768 21.6603 0.775583 20.806C0.32597 19.9293 0.067442 18.9289 0 17.8049L4.24885 16.4223C4.29381 17.4339 4.54109 18.277 4.99071 18.9514C5.4628 19.6258 6.12598 20.1204 6.98025 20.4351C7.83451 20.7498 8.78994 20.9072 9.84653 20.9072C10.8582 20.9072 11.7124 20.7836 12.4093 20.5363C13.1062 20.289 13.6345 19.963 13.9942 19.5584C14.3539 19.1312 14.5338 18.6704 14.5338 18.1758C14.5338 17.5913 14.3089 17.1192 13.8593 16.7595C13.4097 16.3998 12.7915 16.0963 12.0047 15.8491C11.2403 15.6018 10.3636 15.3657 9.37444 15.1409C8.27288 14.8936 7.18257 14.6126 6.1035 14.2979C5.04691 13.9832 4.08024 13.5785 3.20349 13.0839C2.34923 12.5894 1.66357 11.9487 1.14651 11.1618C0.651939 10.375 0.404652 9.38587 0.404652 8.19439C0.404652 6.82307 0.741862 5.64284 1.41628 4.65369C2.11318 3.64206 3.12481 2.85524 4.45117 2.29322C5.77753 1.7312 7.37366 1.4502 9.23955 1.4502C11.1279 1.4502 12.7353 1.7312 14.0617 2.29322C15.4105 2.83276 16.4558 3.60834 17.1977 4.61997C17.9396 5.60912 18.3442 6.78935 18.4117 8.16067L14.0279 9.37463C14.0279 8.67773 13.9155 8.07075 13.6907 7.55369C13.4659 7.03664 13.1512 6.60951 12.7465 6.2723C12.3419 5.91261 11.8361 5.64284 11.2291 5.46299C10.6446 5.28315 9.97017 5.19322 9.20583 5.19322C8.32909 5.19322 7.56474 5.30563 6.9128 5.53043C6.28335 5.75524 5.80001 6.05873 5.4628 6.4409C5.14807 6.82307 4.99071 7.27269 4.99071 7.78974C4.99071 8.39672 5.238 8.90253 5.73257 9.30719C6.24963 9.68936 6.92404 10.0041 7.75583 10.2514C8.61009 10.4987 9.54304 10.7347 10.5547 10.9595C11.5213 11.1618 12.4992 11.4204 13.4884 11.7351C14.5 12.0273 15.433 12.4208 16.2872 12.9153C17.164 13.3874 17.8609 14.0394 18.3779 14.8711C18.9175 15.6805 19.1872 16.7033 19.1872 17.9398C19.1872 19.2886 18.8276 20.4688 18.1082 21.4805C17.3888 22.4921 16.3097 23.2789 14.871 23.8409C13.4547 24.3805 11.7012 24.6502 9.61048 24.6502Z" fill="#2B5C62"/>
</svg>
